:SAMPLES-PER-SECOND 30
:FULLY-SPECIFIED
:DEGREES
138
root  -8.40288 32.3684 -7.10348 92.6735 -74.8787 -107.321
RightUpLeg  -18.7877 -8.6855 12.5205
RightLeg  65.2217 1.26933 2.37271
RightFoot  -28.7448 -0.880509 -4.48136
RightToes  -1.16417e-010 0 -3.6325e-017
Spine  0.592745 -4.62991 -4.317
Spine1  13.2062 1.10328 -16.333
HEad  -47.8747 -20.8207 -4.95518
LeftShoulder1  0.370372 2.3641 -26.3944
LeftArm  11.9547 -13.4915 -41.2094
LeftForeArm  138.303 -75.9791 -135.403
LeftHand  -0.0614903 6.0944 -3.90366
RightShoulder  -0.516243 -5.10964 25.3442
RightArm  13.0912 0.986636 46.3397
RightForeArm  130.12 62.0071 157.645
RightHand  0.339915 3.25898 4.33822
LeftUpLeg  -22.7055 -4.1498 34.8031
LeftLeg  66.5456 0.0974818 0.974533
LeftFoot  -24.0653 -0.398645 -4.8631
LeftToes  1.47335e-010 -1.29615e-010 3.08757e-011
139
root  -8.6808 32.0018 -7.00891 88.5011 -74.2784 -102.485
RightUpLeg  -19.7272 -9.29986 13.1142
RightLeg  66.8858 1.04103 1.98827
RightFoot  -30.338 -0.813073 -3.62342
RightToes  -1.16417e-010 0 -3.6325e-017
Spine  0.566147 -4.52667 -3.67092
Spine1  13.936 1.57075 -17.0998
HEad  -48.5816 -22.0587 -4.50861
LeftShoulder1  0.446821 2.07221 -24.934
LeftArm  11.6612 -12.2801 -41.7663
LeftForeArm  144.128 -73.6662 -142.96
LeftHand  -0.065297 6.26467 -3.63728
RightShoulder  -0.441064 -4.89231 24.8689
RightArm  13.6259 1.94113 46.7671
RightForeArm  130.605 59.7485 159.542
RightHand  0.383931 2.88005 5.16803
LeftUpLeg  -24.6289 -5.09853 35.6493
LeftLeg  68.7863 0.0140195 0.842004
LeftFoot  -25.5328 -0.496284 -5.20848
LeftToes  1.47335e-010 -1.29615e-010 3.08757e-011
140
root  -8.86758 31.6876 -6.8869 85.8304 -73.5057 -98.3069
RightUpLeg  -21.6931 -9.4825 13.939
RightLeg  68.318 0.810113 1.50087
RightFoot  -31.4541 -0.737591 -2.95267
RightToes  -1.16417e-010 0 -3.6325e-017
Spine  0.452343 -4.44898 -2.72084
Spine1  14.013 1.79399 -17.788
HEad  -48.9903 -23.3469 -4.5695
LeftShoulder1  0.399975 2.19289 -24.2301
LeftArm  11.1849 -11.3057 -41.4878
LeftForeArm  146.18 -72.2013 -146.387
LeftHand  -0.0957414 7.1127 -3.52961
RightShoulder  -0.347097 -4.60835 24.3874
RightArm  15.2352 2.91721 47.7
RightForeArm  129.778 58.5009 160.39
RightHand  0.381704 2.38668 5.50814
LeftUpLeg  -27.2926 -4.8428 36.7836
LeftLeg  70.6443 -0.300737 -0.0673311
LeftFoot  -26.8304 -0.639029 -5.88547
LeftToes  1.47335e-010 -1.29615e-010 3.08757e-011
141
root  -9.0049 31.3604 -6.70704 80.9423 -72.8216 -91.9886
RightUpLeg  -23.6877 -10.402 14.3411
RightLeg  69.8448 0.632001 1.0927
RightFoot  -32.5248 -0.66884 -2.39103
RightToes  -1.16417e-010 0 -3.6325e-017
Spine  0.352816 -4.65232 -1.79722
Spine1  14.8364 1.80303 -18.1455
HEad  -49.6887 -24.1996 -4.16641
LeftShoulder1  0.433079 2.0337 -23.1942
LeftArm  9.7979 -9.42456 -41.1349
LeftForeArm  146.576 -71.5777 -147.598
LeftHand  -0.0515732 5.92388 -3.2523
RightShoulder  -0.249524 -4.29493 24.2023
RightArm  17.5907 3.88795 48.7453
RightForeArm  128.409 57.8678 160.731
RightHand  0.457028 2.80579 6.22919
LeftUpLeg  -30.46 -4.91275 37.5211
LeftLeg  72.6092 -0.565919 -1.05553
LeftFoot  -27.8433 -0.731458 -6.19238
LeftToes  1.47335e-010 -1.29615e-010 3.08757e-011
142
root  -9.1086 31.0555 -6.57089 79.1212 -71.786 -88.591
RightUpLeg  -25.8455 -10.7041 15.2906
RightLeg  71.1168 0.498183 0.734108
RightFoot  -33.2746 -0.608294 -1.96975
RightToes  -1.16417e-010 0 -3.6325e-017
Spine  -0.50371 -4.47033 -0.571952
Spine1  16.5444 2.29399 -18.4227
HEad  -51.0415 -25.3758 -3.38272
LeftShoulder1  0.528943 1.63949 -21.9472
LeftArm  7.88689 -7.5075 -40.6692
LeftForeArm  147.502 -70.8342 -148.999
LeftHand  -0.0392422 5.69497 -2.22579
RightShoulder  -0.192303 -4.11499 23.8625
RightArm  19.8823 4.72944 49.6723
RightForeArm  128.3 57.7087 160.832
RightHand  0.593736 3.35619 7.6305
LeftUpLeg  -33.2935 -3.80883 38.8415
LeftLeg  74.2598 -0.914532 -2.62053
LeftFoot  -28.8388 -0.888231 -6.89202
LeftToes  1.47335e-010 -1.29615e-010 3.08757e-011
143
root  -9.09748 30.7317 -6.41449 79.2912 -71.0187 -87.3489
RightUpLeg  -28.1579 -10.3797 16.0266
RightLeg  72.5443 0.389128 0.414166
RightFoot  -33.8161 -0.511202 -1.41279
RightToes  -1.16417e-010 0 -3.6325e-017
Spine  0.730537 -4.193 0.828822
Spine1  15.8999 2.61072 -19.1484
HEad  -51.8481 -26.0982 -2.66767
LeftShoulder1  0.522186 1.59001 -20.9061
LeftArm  6.11885 -5.07509 -40.4717
LeftForeArm  150.248 -69.5412 -151.407
LeftHand  -0.0441648 6.01463 -1.74755
RightShoulder  -0.237081 -4.26161 23.8382
RightArm  23.0598 4.95921 50.7106
RightForeArm  126.653 57.6141 160.779
RightHand  0.484043 2.24174 7.18043
LeftUpLeg  -35.7488 -2.19651 39.9101
LeftLeg  75.8122 -1.26078 -4.56726
LeftFoot  -29.8648 -1.08632 -7.75089
LeftToes  1.47335e-010 -1.29615e-010 3.08757e-011
144
root  -9.12166 30.4393 -6.23587 78.2921 -69.8463 -83.8553
RightUpLeg  -31.4117 -10.8414 17.0735
RightLeg  73.6704 0.359426 0.323758
RightFoot  -34.2742 -0.436922 -1.00212
RightToes  -1.16417e-010 0 -3.6325e-017
Spine  -0.303042 -4.00633 2.70066
Spine1  16.8818 3.11446 -19.9912
HEad  -51.8346 -27.635 -2.22045
LeftShoulder1  0.611706 1.15998 -19.545
LeftArm  4.52058 -3.24165 -41.0311
LeftForeArm  152.021 -68.7153 -152.768
LeftHand  -0.0608396 6.82898 -1.58349
RightShoulder  -0.354771 -4.625 24.6348
RightArm  24.9256 5.06274 50.6778
RightForeArm  123.914 58.0176 160.308
RightHand  0.401594 2.03712 6.10964
LeftUpLeg  -39.5167 -0.459982 41.1148
LeftLeg  77.2246 -1.53562 -6.6112
LeftFoot  -30.7634 -1.25226 -8.3927
LeftToes  1.47335e-010 -1.29615e-010 3.08757e-011
